<!-- Generator: Adobe Illustrator 19.1.0, SVG Export Plug-In  -->
<svg version="1.1"
	 xmlns="http://www.w3.org/2000/svg" xmlns:xlink="http://www.w3.org/1999/xlink" xmlns:a="http://ns.adobe.com/AdobeSVGViewerExtensions/3.0/"
	 x="0px" y="0px" 
	 xml:space="preserve">
<style type="text/css">
	.st0{fill-rule:evenodd;clip-rule:evenodd;fill:#808080;}
</style>
<defs>
</defs>
<path class="st0" d="M1.2,6.1c0,0,0,0.3,0,0.4l0,5.7h2.5c0-1.5,0-3.1,0-4.6c0,0,0-1.5,0-1.5c0,0,0,0,0,0c0,0,1.6,0,1.6,0l0,0L5.6,4
	L3.8,4c0-0.3,0-0.6,0-0.9c0-0.3,0-0.6,0.2-0.8l1.7-0.2l0-2.1c-0.3,0-0.7,0-1,0c-0.3,0-0.7,0-1,0C2.9,0.1,2.4,0.3,2,0.6
	C1.5,1.5,1.3,0.7,1.3,4L0,4l0,2.1L1.2,6.1L1.2,6.1z"/>
</svg>