<!-- Generator: Adobe Illustrator 19.2.0, SVG Export Plug-In  -->
<svg version="1.1"
	 xmlns="http://www.w3.org/2000/svg" xmlns:xlink="http://www.w3.org/1999/xlink" xmlns:a="http://ns.adobe.com/AdobeSVGViewerExtensions/3.0/"
	 x="0px" y="0px" width="11.8px" height="11.8px" viewBox="0 0 11.8 11.8" style="enable-background:new 0 0 11.8 11.8;"
	 xml:space="preserve">
<style type="text/css">
	.st0{fill:#808080;}
</style>
<defs>
</defs>
<g>
	<g>
		<path class="st0" d="M5.9,0C2.6,0,0,2.6,0,5.9c0,2.4,1.4,4.5,3.5,5.4c0-0.4,0-0.9,0.1-1.3c0.2-1,0.5-2,0.7-3.1c0-0.1,0-0.3,0-0.4
			C4.2,6.2,4.2,5.8,4.2,5.4C4.3,5,4.5,4.7,4.7,4.5C5,4.3,5.3,4.2,5.7,4.3C6,4.5,6.1,4.8,6.1,5.1c0,0.1,0,0.3,0,0.4
			C6,6.1,5.8,6.7,5.6,7.3C5.5,7.8,5.9,8.3,6.4,8.4c0.6,0.1,1-0.3,1.4-0.7c0.6-0.9,0.7-1.8,0.6-2.8C8.3,4.2,8,3.7,7.5,3.4
			C7,3.1,6.5,3,6,3C4.5,3,3.3,3.9,3.1,5.4C3,5.9,3,6.4,3.4,6.9c0.1,0.2,0.2,0.4,0.1,0.6c0,0.1,0,0.1-0.1,0.2C3.4,8,3.3,8,3,7.9
			C2.6,7.7,2.3,7.4,2.1,6.9C1.6,5.6,1.9,4.3,2.9,3.3C4.1,2,5.7,1.7,7.3,2.2c1.4,0.4,2.3,1.3,2.5,2.7C10,6.2,9.7,7.4,8.9,8.4
			c-0.7,0.8-1.6,1.2-2.7,1c-0.4-0.1-0.7-0.3-1-0.6c-0.1,0.5-0.2,1-0.4,1.5c-0.2,0.5-0.4,0.9-0.6,1.4c0.5,0.1,1,0.2,1.6,0.2
			c3.3,0,5.9-2.6,5.9-5.9C11.8,2.6,9.2,0,5.9,0z"/>
		<path class="st0" d="M4.3,11.6c-0.3-0.1-0.5-0.2-0.8-0.3C3.8,11.4,4,11.5,4.3,11.6z"/>
		<path class="st0" d="M4.3,11.6C4.3,11.6,4.3,11.6,4.3,11.6C4.3,11.6,4.3,11.6,4.3,11.6C4.3,11.6,4.3,11.6,4.3,11.6z"/>
		<path class="st0" d="M3.5,11.3C3.5,11.3,3.5,11.3,3.5,11.3C3.5,11.3,3.5,11.3,3.5,11.3C3.5,11.3,3.5,11.3,3.5,11.3z"/>
	</g>
</g>
</svg>
