<!-- Generator: Adobe Illustrator 19.1.0, SVG Export Plug-In  -->
<svg version="1.1"
	 xmlns="http://www.w3.org/2000/svg" xmlns:xlink="http://www.w3.org/1999/xlink" xmlns:a="http://ns.adobe.com/AdobeSVGViewerExtensions/3.0/"
	 x="0px" y="0px" 
	 xml:space="preserve">
<style type="text/css">
	.st0{fill-rule:evenodd;clip-rule:evenodd;fill:#808080;}
</style>
<defs>
</defs>
<path class="st0" d="M14.2,6.3C14.3,6.2,14.2,6.3,14.2,6.3l0.1-0.4c0.5,0,0.8,0,1.2-0.2l0.8-0.5c-0.3,0-0.5,0.1-0.9,0L14.5,5
	c0.1,0,0.2,0,0.3-0.1c0.1,0,0.2,0,0.3-0.1c0.2,0,0.3-0.1,0.5-0.2l0.6-0.6c-0.3,0.1-0.6,0.2-1,0.2c-0.2,0-0.9,0-1-0.2
	c-0.1-0.2-0.1-0.4-0.2-0.8c-0.1-0.2-0.2-0.5-0.4-0.7c-0.3-0.4-0.7-0.8-1.1-1.1l-1.8-0.5c0.1-0.1,0.5-0.2,0.7-0.2
	c0.8-0.2,0.7-0.5,0.5-0.6c-0.2-0.1-0.8,0.2-1.1,0.2L11.4,0c-0.5,0-0.8,0.3-1.2,0.5l0.2-0.4C9.9,0.3,9,1.4,8.8,1.9L7.8,4
	C7.7,4,7.2,3.4,6.7,3.1C6.3,2.9,5.8,2.7,5.3,2.4c-1.1-0.5-1.9-0.8-3-1.2c-0.1,1,0.6,1.5,1.3,2L2.8,3.4c0,0.4,0.3,0.8,0.6,1.1
	C3.8,4.8,4,4.8,4.4,5l0.1,0c-0.7,0.1-0.5,0-1,0.4c0,0.3,0.6,0.8,1,0.9l0.9,0.1C5.4,6.5,5.3,6.6,5.2,6.6C5.1,6.7,5.1,6.7,5,6.8
	C4.9,6.9,4.8,7.1,4.9,7.3L6,7.8C5.9,8,5.6,8.2,5.4,8.3C4.8,8.8,4,9.1,3.1,9.1C2.4,9.2,1.8,9,1.3,8.8C0.7,8.6,0.4,8.4,0,8.1
	c0.1,0.2,0.4,0.5,0.6,0.7c1.7,1.8,4.5,2.8,7.4,2.3c1.8-0.3,2.9-0.9,4-1.7c0.2-0.1,0.6-0.5,0.7-0.6c0.5-0.5,0.9-1,1.1-1.5
	C13.9,7.1,14.2,6.5,14.2,6.3L14.2,6.3z"/>
</svg>