<!-- Generator: Adobe Illustrator 19.1.0, SVG Export Plug-In  -->
<svg version="1.1"
	 xmlns="http://www.w3.org/2000/svg" xmlns:xlink="http://www.w3.org/1999/xlink" 
	 x="0px" y="0px"  
	 xml:space="preserve">
<style type="text/css">
	.st0{fill-rule:evenodd;clip-rule:evenodd;fill:#808080;}
</style>
<defs>
</defs>
<path class="st0" d="M12.5,5.3c0.9,0.8,1.5,1.5,1.9,2c0.2,0.3,0.2,0.5,0.2,0.7c-0.1,0.2-0.2,0.3-0.4,0.3l-2.3,0.1
	c-0.3,0-0.7-0.2-1.2-0.6c-0.5-0.4-0.8-0.8-1-1.1C9.5,6.6,9.4,6.5,9.1,6.4c-0.2,0-0.4,0.1-0.5,0.4L8.6,7.7c0,0.2-0.1,0.3-0.2,0.4
	C8.2,8.2,8.1,8.3,8.1,8.3c-0.1,0-0.2,0-0.4,0.1C7,8.4,6.5,8.3,6,8.3C5.6,8.2,5.2,8,4.8,7.8C4.4,7.5,4.1,7.3,3.9,7
	c-0.2-0.2-0.5-0.6-1-1C1.8,4.4,0.9,3,0.4,1.8C0.1,1.3,0,0.9,0,0.6c0.1-0.1,0.3-0.2,0.5-0.2c0.3,0,0.6,0,1.1,0c0.5,0,0.8,0,0.9,0
	c0.2,0,0.4,0.1,0.6,0.4c0.6,1.3,1.2,2.3,1.7,3.1c0.4,0.4,0.6,0.3,0.7-0.2c0,0,0.1-0.6,0.1-1.7c0-0.7-0.3-1.2-0.9-1.4
	C4.9,0.2,5.4,0,6.2,0C6.5,0,6.7,0,7,0c0.3,0,0.5,0,0.5,0c0.7,0,1.1,0.3,1.1,0.8c0,0.1,0,0.2,0,0.5c0,0.3,0,0.5-0.1,0.8
	c0,0.2,0,0.5,0,0.8c0,0.3,0,0.5,0.1,0.7C8.6,3.9,8.7,4,8.8,4C9,3.9,9.1,3.8,9.2,3.8c0.1-0.1,0.2-0.2,0.4-0.4C9.7,3.2,9.8,3,9.9,2.9
	c0.1-0.1,0.2-0.3,0.3-0.5c0.1-0.3,0.2-0.4,0.2-0.5c0-0.1,0.1-0.3,0.2-0.5c0.1-0.3,0.2-0.4,0.2-0.4L11,0.8c0.1-0.2,0.2-0.3,0.2-0.4
	c0.1,0,0.2-0.1,0.4-0.1h2.2c0.3,0,0.4,0,0.5,0c0,0,0.1,0.1,0.2,0.2c0.2,0.2,0,0.7-0.4,1.4c-0.5,0.7-0.9,1.3-1.3,1.8
	C12.1,4.4,12.1,4.9,12.5,5.3z"/>
</svg>
